<svg width="40" height="40" viewBox="0 0 40 40" fill="none" xmlns="http://www.w3.org/2000/svg">
<path d="M32.5 26.6667C32.5 27.5883 31.755 28.3333 30.8333 28.3333H27.5C26.5783 28.3333 25.8333 27.5883 25.8333 26.6667C25.8333 25.745 26.5783 25 27.5 25H30.8333C31.755 25 32.5 25.745 32.5 26.6667ZM40 25V33.3333C40 37.01 37.01 40 33.3333 40H6.66667C2.99 40 0 37.01 0 33.3333V25C0 21.3233 2.99 18.3333 6.66667 18.3333H8.33333V6.66667C8.33333 2.99 11.3233 0 15 0H25C28.6767 0 31.6667 2.99 31.6667 6.66667V18.3333H33.3333C37.01 18.3333 40 21.3233 40 25ZM11.6667 18.3333H28.3333V6.66667C28.3333 4.82833 26.8383 3.33333 25 3.33333H15C13.1617 3.33333 11.6667 4.82833 11.6667 6.66667V18.3333ZM6.66667 36.6667H18.3333V21.6667H6.66667C4.82833 21.6667 3.33333 23.1617 3.33333 25V33.3333C3.33333 35.1717 4.82833 36.6667 6.66667 36.6667ZM36.6667 25C36.6667 23.1617 35.1717 21.6667 33.3333 21.6667H21.6667V36.6667H33.3333C35.1717 36.6667 36.6667 35.1717 36.6667 33.3333V25ZM12.5 25H9.16667C8.245 25 7.5 25.745 7.5 26.6667C7.5 27.5883 8.245 28.3333 9.16667 28.3333H12.5C13.4217 28.3333 14.1667 27.5883 14.1667 26.6667C14.1667 25.745 13.4217 25 12.5 25ZM23.3333 8.33333C23.3333 7.41167 22.5883 6.66667 21.6667 6.66667H18.3333C17.4117 6.66667 16.6667 7.41167 16.6667 8.33333C16.6667 9.255 17.4117 10 18.3333 10H21.6667C22.5883 10 23.3333 9.255 23.3333 8.33333Z" fill="white"/>
</svg>
