<svg width="29" height="29" viewBox="0 0 29 29" fill="none" xmlns="http://www.w3.org/2000/svg">
<g clip-path="url(#clip0_901_482)">
<path d="M27.7917 26.3636H15.7083V23.7273H24.5811C26.3513 23.7273 27.7917 22.156 27.7917 20.2249C27.7917 12.474 22.51 6.00168 15.7083 5.33205V2.63636H16.9167C17.5837 2.63636 18.125 2.04582 18.125 1.31818C18.125 0.590545 17.5837 0 16.9167 0H12.0833C11.4163 0 10.875 0.590545 10.875 1.31818C10.875 2.04582 11.4163 2.63636 12.0833 2.63636H13.2917V5.33073C6.48996 6.00168 1.20833 12.4726 1.20833 20.2249C1.20833 22.156 2.64867 23.7273 4.41888 23.7273H13.2917V26.3636H1.20833C0.541333 26.3636 0 26.9542 0 27.6818C0 28.4095 0.541333 29 1.20833 29H27.7917C28.4587 29 29 28.4095 29 27.6818C29 26.9542 28.4587 26.3636 27.7917 26.3636Z" fill="#2C5D80"/>
</g>
<defs>
<clipPath id="clip0_901_482">
<rect width="29" height="29" fill="white"/>
</clipPath>
</defs>
</svg>
