<svg width="46" height="46" viewBox="0 0 46 46" fill="none" xmlns="http://www.w3.org/2000/svg">
<g clip-path="url(#clip0_831_9)">
<path d="M44.0833 41.8182H24.9167V37.6364H38.9907C41.7987 37.6364 44.0833 35.144 44.0833 32.0808C44.0833 19.7863 35.7056 9.51991 24.9167 8.45773V4.18182H26.8333C27.8913 4.18182 28.75 3.24509 28.75 2.09091C28.75 0.936727 27.8913 0 26.8333 0H19.1667C18.1087 0 17.25 0.936727 17.25 2.09091C17.25 3.24509 18.1087 4.18182 19.1667 4.18182H21.0833V8.45564C10.2944 9.51991 1.91667 19.7842 1.91667 32.0808C1.91667 35.144 4.20133 37.6364 7.00925 37.6364H21.0833V41.8182H1.91667C0.858667 41.8182 0 42.7549 0 43.9091C0 45.0633 0.858667 46 1.91667 46H44.0833C45.1413 46 46 45.0633 46 43.9091C46 42.7549 45.1413 41.8182 44.0833 41.8182Z" fill="white"/>
</g>
<defs>
<clipPath id="clip0_831_9">
<rect width="46" height="46" fill="white"/>
</clipPath>
</defs>
</svg>
