<svg width="40" height="37" viewBox="0 0 40 37" fill="none" xmlns="http://www.w3.org/2000/svg">
<path d="M31.6667 6.66667H28.205C27.645 3.495 25.2833 0.876667 22.0817 0.0533332C21.2 -0.175 20.2833 0.361667 20.0517 1.25167C19.8217 2.14333 20.36 3.05167 21.2517 3.28C23.4583 3.84833 25 5.84 25 8.12333V26.6667H6.66667C4.82833 26.6667 3.33333 25.1717 3.33333 23.3333V16.6667H7.5C8.42167 16.6667 9.16667 15.92 9.16667 15C9.16667 14.08 8.42167 13.3333 7.5 13.3333H3.33333C1.495 13.3333 0 14.8283 0 16.6667V23.3333C0 26.4667 2.17333 29.1017 5.09167 29.8117C5.03167 30.1467 5 30.4883 5 30.8333C5 34.05 7.61667 36.6667 10.8333 36.6667C14.05 36.6667 16.6667 34.05 16.6667 30.8333C16.6667 30.5517 16.645 30.275 16.605 30H23.395C23.355 30.275 23.3333 30.5517 23.3333 30.8333C23.3333 34.05 25.95 36.6667 29.1667 36.6667C32.3833 36.6667 35 34.05 35 30.8333C35 30.4883 34.9683 30.1467 34.9083 29.8117C37.8267 29.1017 40 26.4667 40 23.3333V15C40 10.405 36.2617 6.66667 31.6667 6.66667ZM36.6667 15V16.6667H28.3333V10H31.6667C34.4233 10 36.6667 12.2433 36.6667 15ZM13.3333 30.8333C13.3333 32.2117 12.2117 33.3333 10.8333 33.3333C9.455 33.3333 8.33333 32.2117 8.33333 30.8333C8.33333 30.5183 8.395 30.24 8.485 30H13.1833C13.2733 30.24 13.335 30.5183 13.335 30.8333H13.3333ZM29.1667 33.3333C27.7883 33.3333 26.6667 32.2117 26.6667 30.8333C26.6667 30.5183 26.7283 30.24 26.8183 30H31.5167C31.6067 30.24 31.6683 30.5183 31.6683 30.8333C31.6683 32.2117 30.545 33.3333 29.1667 33.3333ZM33.3333 26.6667H28.3333V20H36.6667V23.3333C36.6667 25.1717 35.1717 26.6667 33.3333 26.6667ZM0 1.66667C0 0.746667 0.745 0 1.66667 0H15.2567C16.1783 0 16.9233 0.746667 16.9233 1.66667C16.9233 2.58667 16.1783 3.33333 15.2567 3.33333H1.66667C0.745 3.33333 0 2.58667 0 1.66667ZM0 8.33333C0 7.41333 0.745 6.66667 1.66667 6.66667H11.9233C12.845 6.66667 13.59 7.41333 13.59 8.33333C13.59 9.25333 12.845 10 11.9233 10H1.66667C0.745 10 0 9.25333 0 8.33333Z" fill="white"/>
</svg>
