<svg width="40" height="40" viewBox="0 0 40 40" fill="none" xmlns="http://www.w3.org/2000/svg">
<path d="M39.9168 30.4883L37.7766 15.4883C37.1933 11.41 33.6463 8.33333 29.5261 8.33333H25.2491C25.6141 7.57333 25.8341 6.73167 25.8341 5.83333C25.8341 2.61667 23.2173 0 20.0004 0C16.7835 0 14.1667 2.61667 14.1667 5.83333C14.1667 6.73167 14.3883 7.57333 14.7517 8.33333H10.5998C6.44447 8.33333 2.97923 11.315 2.35918 15.4233L0.0940268 30.4233C-0.269332 32.825 0.430717 35.2583 2.01583 37.1017C3.60094 38.9433 5.90443 40 8.3346 40H31.6662C34.083 40 36.3782 38.9533 37.9616 37.1267C39.5451 35.3017 40.2568 32.8817 39.9168 30.4883ZM17.5002 5.83333C17.5002 4.455 18.622 3.33333 20.0004 3.33333C21.3788 3.33333 22.5006 4.455 22.5006 5.83333C22.5006 7.21167 21.3788 8.33333 20.0004 8.33333C18.622 8.33333 17.5002 7.21167 17.5002 5.83333ZM35.4448 34.9433C34.4947 36.0383 33.118 36.6667 31.6662 36.6667H8.3346C6.87616 36.6667 5.4944 36.0317 4.54433 34.9267C3.59427 33.8217 3.17257 32.3617 3.39092 30.9217L5.65441 15.9217C6.0261 13.4567 8.10625 11.6667 10.5998 11.6667H29.5261C31.9979 11.6667 34.128 13.5117 34.4764 15.96L36.6166 30.96C36.8216 32.395 36.3932 33.8467 35.4448 34.9433ZM20.0004 36.6667C19.0803 36.6667 18.3336 35.9217 18.3336 35V33.3333H17.8869C16.1085 33.3333 14.4484 32.3767 13.5566 30.835C13.0966 30.0367 13.3683 29.0183 14.165 28.5583C14.9601 28.095 15.9801 28.3683 16.4418 29.165C16.7402 29.6817 17.2935 30 17.8869 30H21.6672C22.5872 30 23.334 29.2533 23.334 28.3333C23.334 27.7017 22.8823 27.17 22.2589 27.065L17.1919 26.2217C14.9551 25.8483 13.3333 23.9317 13.3333 21.6667C13.3333 18.91 15.5768 16.6667 18.3336 16.6667V15C18.3336 14.0783 19.0803 13.3333 20.0004 13.3333C20.9205 13.3333 21.6672 14.0783 21.6672 15V16.6667H22.1139C23.8923 16.6667 25.5525 17.6233 26.4442 19.165C26.9059 19.9633 26.6325 20.9817 25.8375 21.4417C25.0374 21.905 24.0173 21.6283 23.5606 20.835C23.2623 20.3183 22.7089 20 22.1155 20H18.3353C17.4169 20 16.6685 20.7467 16.6685 21.6667C16.6685 22.2983 17.1202 22.83 17.7419 22.935L22.8106 23.7783C25.0474 24.1517 26.6692 26.0683 26.6692 28.3333C26.6692 31.09 24.4257 33.3333 21.6689 33.3333V35C21.6689 35.9217 20.9221 36.6667 20.0021 36.6667H20.0004Z" fill="white"/>
</svg>
