<svg width="52" height="52" viewBox="0 0 52 52" fill="none" xmlns="http://www.w3.org/2000/svg">
<path d="M43.7425 35.6213L43.3916 39.6363C42.977 44.4048 39.0842 48 34.3368 48H17.4946C12.7981 48 8.81987 44.304 8.4344 39.585L8.09439 35.4123C9.58534 36.395 11.4363 37 13.3418 37C15.7546 37 18.1001 36.0522 19.7056 34.5653C21.3111 36.054 23.6566 37 26.0694 37C28.4822 37 30.8277 36.0522 32.4332 34.5653C34.0386 36.054 36.3842 37 38.7969 37C40.5715 37 42.3098 36.4867 43.7425 35.6213ZM26.0694 15.0293C25.9894 15.0293 25.9221 15.0623 25.8675 15.1265C23.5239 17.8472 23.342 19.2258 23.342 19.5852C23.342 21.1013 24.5657 22.3352 26.0694 22.3352C27.573 22.3352 28.7967 21.1013 28.7967 19.5852C28.7967 19.2277 28.6149 17.8472 26.2712 15.1265C26.2166 15.0623 26.1494 15.0312 26.0694 15.0312V15.0293ZM45.9789 9.98217L44.2371 29.9618C44.2371 29.9618 42.4334 33.3333 38.7969 33.3333C36.7514 33.3333 34.695 32.2223 34.1132 30.8015C33.8332 30.114 33.1677 29.6667 32.4332 29.6667C31.6986 29.6667 31.0331 30.114 30.7531 30.8015C30.1731 32.2205 28.1149 33.3333 26.0694 33.3333C24.0239 33.3333 21.9675 32.2223 21.3856 30.8015C21.1056 30.114 20.4401 29.6667 19.7056 29.6667C18.971 29.6667 18.3055 30.114 18.0255 30.8015C17.4455 32.2205 15.3873 33.3333 13.3418 33.3333C8.79623 33.3333 7.6362 29.8005 7.6362 29.8005L6.01798 9.951C5.89434 8.42383 6.41253 6.90033 7.44347 5.77283C8.4744 4.64533 9.93444 4 11.4545 4H40.5461C42.0716 4 43.5371 4.65083 44.568 5.78383C45.5989 6.91867 46.1135 8.4495 45.9789 9.98217ZM32.4332 19.5833C32.4332 17.662 31.284 15.3538 29.0185 12.7212C27.5312 10.9942 24.6075 10.9923 23.1202 12.7212C20.8547 15.3538 19.7056 17.662 19.7056 19.5833C19.7056 23.1217 22.5602 26 26.0694 26C29.5785 26 32.4332 23.1217 32.4332 19.5833Z" fill="white"/>
</svg>
