<svg width="30" height="30" viewBox="0 0 30 30" fill="none" xmlns="http://www.w3.org/2000/svg">
<path d="M21.8464 12.9073L24.0951 10.6586L24.7651 16.2611L21.9051 13.3998L21.8464 12.9073ZM5.90636 10.6586L5.23636 16.2611L8.09636 13.3998L8.15511 12.9073L5.90636 10.6586ZM26.2351 24.3598C26.0451 24.5498 25.8264 24.6911 25.5951 24.7961C25.6376 26.0723 25.2214 27.3273 24.3689 28.2948C23.4139 29.3786 22.0364 29.9998 20.5926 29.9998H9.40886C7.96386 29.9998 6.58761 29.3786 5.63261 28.2948C4.77511 27.3211 4.35761 26.0573 4.40761 24.7723C4.18261 24.6673 3.96886 24.5298 3.78261 24.3436C2.92886 23.4898 2.92886 22.1048 3.78261 21.2498L8.90261 16.1298C9.42761 15.6048 10.1526 15.4061 10.8326 15.5261L13.2339 13.1248L10.7851 10.6761C10.1051 10.7961 9.38011 10.5973 8.85511 10.0723L3.77386 4.99234C2.92011 4.13859 2.92011 2.75359 3.77386 1.89859C4.62761 1.04359 6.01261 1.04484 6.86761 1.89859L8.73011 3.76109L12.0326 1.05859C13.7514 -0.347656 16.2476 -0.347656 17.9664 1.05859L21.2689 3.76109L23.1314 1.89859C23.9851 1.04484 25.3701 1.04484 26.2251 1.89859C27.0801 2.75234 27.0789 4.13734 26.2251 4.99234L21.1451 10.0723C20.6201 10.5973 19.8951 10.7961 19.2151 10.6761L16.7664 13.1248L19.1676 15.5261C19.8476 15.4061 20.5726 15.6048 21.0976 16.1298L26.2339 21.2661C27.0876 22.1198 27.0876 23.5048 26.2339 24.3598H26.2351ZM15.0001 11.3573L17.4489 8.90859C17.3289 8.22859 17.5276 7.50359 18.0526 6.97859L19.4926 5.53859L16.3826 2.99359C15.5801 2.33859 14.4176 2.33859 13.6151 2.99359L10.5051 5.53859L11.9451 6.97859C12.4701 7.50359 12.6689 8.22859 12.5489 8.90859L14.9976 11.3573H15.0001ZM23.1039 24.6473L23.0564 24.2761L18.0039 19.2236C17.4789 18.6986 17.2789 17.9736 17.4001 17.2936L14.9989 14.8923L12.5976 17.2936C12.7176 17.9736 12.5189 18.6986 11.9939 19.2236L6.94136 24.2761L6.89386 24.6473C6.80011 25.3798 7.01886 26.0873 7.50636 26.6423C7.99511 27.1948 8.67011 27.5011 9.40761 27.5011H12.4989V23.7511C12.4989 22.3698 13.6176 21.2511 14.9989 21.2511C16.3801 21.2511 17.4989 22.3698 17.4989 23.7511V27.5011H20.5901C21.3276 27.5011 22.0026 27.1961 22.4914 26.6423C22.9789 26.0886 23.1964 25.3798 23.1039 24.6473Z" fill="#2C5D80"/>
</svg>
