<svg width="40" height="40" viewBox="0 0 40 40" fill="none" xmlns="http://www.w3.org/2000/svg">
<g clip-path="url(#clip0_229_35)">
<path d="M39.9 24.4299L34.8917 10.6549C34.1233 8.54327 32.36 6.9716 30.1767 6.44993L21.6683 4.41494V1.6666C21.6583 -0.513398 18.345 -0.511732 18.335 1.6666V3.6166L10.885 1.8366C8.36167 1.16327 5.78333 2.50993 4.90167 4.9516L0.105 17.7483C0.035 17.9349 0 18.8366 0 18.8366C0 23.0133 3.11833 26.4483 7.1 26.6566C9.185 26.7616 11.1567 26.0366 12.6633 24.6083C14.1483 23.1983 15 21.2149 15 19.1683C15 19.1683 14.9633 17.9266 14.8883 17.7366L10.01 5.05327C10.03 5.0566 18.3333 7.04327 18.3333 7.04327V36.6666H8.33333C6.15333 36.6766 6.155 39.9899 8.33333 39.9999H31.6667C33.8467 39.9899 33.845 36.6766 31.6667 36.6666H21.6667V7.8416L29.4017 9.6916C29.7317 9.76993 30.0417 9.89827 30.325 10.0649L25.1 24.4299C25.0333 24.6116 25 25.5033 25 25.5033C24.87 32.0416 32.915 35.9499 37.6617 31.2733C39.1483 29.8633 40 27.8799 40 25.8333C40 25.8333 40 24.9366 39.9 24.4299ZM10.9067 16.6666H4.07167L7.445 7.66494L10.9067 16.6666ZM32.5 13.8349L35.9533 23.3333H29.045L32.5 13.8349Z" fill="white"/>
</g>
<defs>
<clipPath id="clip0_229_35">
<rect width="40" height="40" fill="white"/>
</clipPath>
</defs>
</svg>
