<svg width="20" height="20" viewBox="0 0 20 20" fill="none" xmlns="http://www.w3.org/2000/svg">
<g clip-path="url(#clip0_221_698)">
<path d="M19.4483 10.2875L10.5533 20H2.5C1.12167 20 0 18.8783 0 17.5V11.6667C0 10.2883 1.12167 9.16667 2.5 9.16667H5.83333V8.33333C4.455 8.33333 3.33333 7.21167 3.33333 5.83333H5C5 6.29333 5.37417 6.66667 5.83333 6.66667H7.81333C8.1 6.66667 8.33333 6.43333 8.33333 6.14667C8.33333 5.89083 8.15083 5.67583 7.89833 5.63333L5.16083 5.1775C4.10167 5.00083 3.33333 4.09333 3.33333 3.02C3.33333 1.81417 4.31417 0.833333 5.52 0.833333H5.83333V0H7.5V0.833333C8.87833 0.833333 10 1.955 10 3.33333H8.33333C8.33333 2.87333 7.95917 2.5 7.5 2.5H5.52C5.23333 2.5 5 2.73333 5 3.02C5 3.27583 5.1825 3.49083 5.435 3.53333L8.1725 3.98917C9.23167 4.16583 10 5.07333 10 6.14667C10 7.3525 9.01917 8.33333 7.81333 8.33333H7.5V9.16667H9.8225C10.8392 9.16667 11.6667 9.99417 11.6667 11.0108C11.6667 11.9225 10.9867 12.7075 10.0833 12.8367L6.54917 13.3417L6.785 14.9908L10.3192 14.4858C12.0375 14.2408 13.3333 12.7467 13.3333 11.0108C13.3333 10.8283 13.3067 10.6533 13.2792 10.4792L16.23 7.365C16.6092 6.94833 17.1442 6.69583 17.725 6.66917C18.3017 6.64083 18.8608 6.84333 19.29 7.23417C20.1667 8.0325 20.2383 9.4025 19.4475 10.2883L19.4483 10.2875ZM13.7333 5.455L14.9117 6.63333L16.9867 4.55833C17.3175 4.2275 17.5 3.7875 17.5 3.31917C17.5 2.85083 17.3175 2.41083 16.9867 2.08083L14.9467 0.0408333L13.7683 1.21917L15.0483 2.5H11.6667V4.16667H15.0217L13.7333 5.455Z" fill="white"/>
</g>
<defs>
<clipPath id="clip0_221_698">
<rect width="20" height="20" fill="white"/>
</clipPath>
</defs>
</svg>
