<svg width="20" height="20" viewBox="0 0 20 20" fill="none" xmlns="http://www.w3.org/2000/svg">
<g clip-path="url(#clip0_221_987)">
<path d="M2.50022 2.5L10.0002 0L17.5002 2.5L10.0069 5.00083L2.50022 2.49083V2.5ZM1.66688 4.16667L0.250216 6.52833C-0.305617 7.455 0.139383 8.6575 1.16438 8.99917L5.39855 10.4108C6.13938 10.6575 6.95272 10.3567 7.35438 9.6875L9.16688 6.6675L1.66688 4.16667ZM10.8336 6.66667L12.6461 9.68667C13.0477 10.3567 13.861 10.6575 14.6019 10.41L18.8669 8.98833C19.876 8.65167 20.3144 7.4675 19.7669 6.555L18.3335 4.16667L10.8336 6.66667ZM8.78355 10.545C8.16522 11.575 7.08022 12.1658 5.93772 12.1658C5.58355 12.1658 5.22438 12.11 4.87105 11.9917L1.66688 10.9242V17.5008L9.16688 20.0008V9.90583L8.78355 10.5442V10.545ZM15.1294 11.9917C14.7761 12.11 14.4169 12.1658 14.0627 12.1658C12.9202 12.1658 11.8352 11.5758 11.2169 10.545L10.8336 9.90667V20.0008L18.3335 17.5008V10.9242L15.1294 11.9917Z" fill="white"/>
</g>
<defs>
<clipPath id="clip0_221_987">
<rect width="20" height="20" fill="white"/>
</clipPath>
</defs>
</svg>
