<svg width="25" height="25" viewBox="0 0 25 25" fill="none" xmlns="http://www.w3.org/2000/svg">
<g clip-path="url(#clip0_221_801)">
<path d="M23.4375 4.1416H20.2229C20.0169 4.14165 19.8156 4.20276 19.6443 4.31722C19.473 4.43169 19.3396 4.59436 19.2607 4.78467C19.1819 4.97498 19.1613 5.18439 19.2015 5.38643C19.2416 5.58846 19.3408 5.77405 19.4864 5.91973L20.6177 7.05098L16.8823 10.7854C16.6838 10.975 16.4198 11.0809 16.1453 11.0809C15.8708 11.0809 15.6068 10.975 15.4083 10.7854L15.2312 10.6072C14.636 10.0385 13.8445 9.72121 13.0213 9.72121C12.1981 9.72121 11.4066 10.0385 10.8114 10.6072L5.49894 15.9197C5.3032 16.116 5.19346 16.382 5.19385 16.6592C5.19424 16.9364 5.30473 17.2021 5.50102 17.3979C5.69731 17.5936 5.96331 17.7033 6.24051 17.7029C6.51772 17.7025 6.78341 17.5921 6.97914 17.3958L12.2916 12.0833C12.49 11.8933 12.754 11.7873 13.0286 11.7873C13.3032 11.7873 13.5673 11.8933 13.7656 12.0833L13.9427 12.2614C14.5381 12.8296 15.3295 13.1466 16.1526 13.1466C16.9756 13.1466 17.767 12.8296 18.3625 12.2614L22.0979 8.52598L23.2291 9.65723C23.3753 9.80051 23.5605 9.89755 23.7615 9.93623C23.9624 9.97492 24.1704 9.95353 24.3593 9.87475C24.5482 9.79596 24.7097 9.66326 24.8237 9.49323C24.9376 9.3232 24.9989 9.12336 25 8.91868V5.7041C25 5.2897 24.8354 4.89227 24.5423 4.59925C24.2493 4.30622 23.8519 4.1416 23.4375 4.1416Z" fill="#8C8C8C"/>
<path d="M23.9583 22.8917H5.20833C4.37953 22.8917 3.58468 22.5624 2.99862 21.9764C2.41257 21.3903 2.08333 20.5955 2.08333 19.7667V1.04167C2.08333 0.7654 1.97359 0.500448 1.77824 0.305097C1.58289 0.109747 1.31793 0 1.04167 0C0.765399 0 0.500448 0.109747 0.305097 0.305097C0.109747 0.500448 0 0.7654 0 1.04167L0 19.7667C0.00165402 21.1475 0.550919 22.4713 1.52731 23.4477C2.50371 24.4241 3.82751 24.9733 5.20833 24.975H23.9583C24.2346 24.975 24.4996 24.8653 24.6949 24.6699C24.8903 24.4746 25 24.2096 25 23.9333C25 23.6571 24.8903 23.3921 24.6949 23.1968C24.4996 23.0014 24.2346 22.8917 23.9583 22.8917Z" fill="#8C8C8C"/>
</g>
<defs>
<clipPath id="clip0_221_801">
<rect width="25" height="25" fill="white"/>
</clipPath>
</defs>
</svg>
