<svg width="19" height="25" viewBox="0 0 19 25" fill="none" xmlns="http://www.w3.org/2000/svg">
<path d="M9.38711 12.5486C10.6281 12.5486 11.8411 12.1807 12.8729 11.4912C13.9047 10.8018 14.7089 9.82188 15.1838 8.6754C15.6587 7.52892 15.783 6.26736 15.5409 5.05026C15.2988 3.83316 14.7012 2.71519 13.8237 1.83771C12.9462 0.960229 11.8283 0.362658 10.6112 0.120562C9.39407 -0.121534 8.13252 0.00271857 6.98603 0.477607C5.83955 0.952495 4.85964 1.75669 4.17021 2.7885C3.48078 3.8203 3.11279 5.03338 3.11279 6.27432C3.11445 7.93786 3.77603 9.5328 4.95233 10.7091C6.12864 11.8854 7.72357 12.547 9.38711 12.5486ZM9.38711 2.09144C10.2144 2.09144 11.0231 2.33676 11.711 2.79638C12.3989 3.256 12.935 3.90928 13.2516 4.6736C13.5682 5.43792 13.651 6.27896 13.4896 7.09036C13.3282 7.90176 12.9298 8.64708 12.3449 9.23206C11.7599 9.81705 11.0145 10.2154 10.2032 10.3768C9.39175 10.5382 8.55071 10.4554 7.78639 10.1388C7.02207 9.8222 6.3688 9.28607 5.90917 8.5982C5.44955 7.91033 5.20423 7.10162 5.20423 6.27432C5.20423 5.16495 5.64493 4.10102 6.42937 3.31658C7.21381 2.53214 8.27774 2.09144 9.38711 2.09144Z" fill="#8C8C8C"/>
<path d="M9.38716 14.5913C6.89838 14.5941 4.51232 15.5819 2.75248 17.3381C0.992649 19.0943 0.00276071 21.4754 0 23.959C0 24.2351 0.109889 24.4998 0.305493 24.695C0.501097 24.8902 0.766392 24.9999 1.04302 24.9999C1.31964 24.9999 1.58494 24.8902 1.78054 24.695C1.97615 24.4998 2.08604 24.2351 2.08604 23.959C2.08604 22.0266 2.85526 20.1734 4.22449 18.807C5.59371 17.4407 7.45078 16.673 9.38716 16.673C11.3235 16.673 13.1806 17.4407 14.5498 18.807C15.9191 20.1734 16.6883 22.0266 16.6883 23.959C16.6883 24.2351 16.7982 24.4998 16.9938 24.695C17.1894 24.8902 17.4547 24.9999 17.7313 24.9999C18.0079 24.9999 18.2732 24.8902 18.4688 24.695C18.6644 24.4998 18.7743 24.2351 18.7743 23.959C18.7716 21.4754 17.7817 19.0943 16.0218 17.3381C14.262 15.5819 11.8759 14.5941 9.38716 14.5913Z" fill="#8C8C8C"/>
</svg>
