<svg width="40" height="40" viewBox="0 0 40 40" fill="none" xmlns="http://www.w3.org/2000/svg">
<g clip-path="url(#clip0_123_134)">
<path d="M6.66667 18.3333C2.98333 18.3333 0 15.35 0 11.6667V6.66667C0 2.98333 2.98333 0 6.66667 0C10.35 0 13.3333 2.98333 13.3333 6.66667V11.6667C13.3333 15.35 10.35 18.3333 6.66667 18.3333ZM6.66667 3.33333C4.83333 3.33333 3.33333 4.83333 3.33333 6.66667V11.6667C3.33333 13.5 4.83333 15 6.66667 15C8.5 15 10 13.5 10 11.6667V6.66667C10 4.83333 8.5 3.33333 6.66667 3.33333ZM16.25 38.1667C16.8667 37.4833 16.8 36.4333 16.1167 35.8167C15.4167 35.1833 15 34.2833 15 33.3333V26.6667C15 25.75 14.25 25 13.3333 25C12.4167 25 11.6667 25.75 11.6667 26.6667V33.3333C11.6667 35.2333 12.4833 37.0333 13.8833 38.3C14.2 38.5833 14.6 38.7167 15 38.7167C15.45 38.7167 15.9167 38.5333 16.25 38.1667ZM23.3333 15V1.66667C23.3333 1 22.9333 0.383333 22.3 0.133333C21.6833 -0.116667 20.9667 0.0166667 20.4833 0.5L16.4167 4.56667C15.7667 5.21667 15.7667 6.26667 16.4167 6.91667C17.0667 7.56667 18.1167 7.56667 18.7667 6.91667L20 5.68333V15C20 15.9167 20.75 16.6667 21.6667 16.6667C22.5833 16.6667 23.3333 15.9167 23.3333 15ZM8.33333 38.3333V23.3333C8.33333 22.6667 7.93333 22.05 7.3 21.8C6.68333 21.55 5.96667 21.6833 5.48333 22.1667L1.41667 26.2333C0.766667 26.8833 0.766667 27.9333 1.41667 28.5833C2.06667 29.2333 3.11667 29.2333 3.76667 28.5833L5 27.35V38.3333C5 39.25 5.75 40 6.66667 40C7.58333 40 8.33333 39.25 8.33333 38.3333ZM28.3333 40C21.9 40 16.6667 34.7667 16.6667 28.3333C16.6667 21.9 21.9 16.6667 28.3333 16.6667C34.7667 16.6667 40 21.9 40 28.3333C40 34.7667 34.7667 40 28.3333 40ZM30 32.35L34.5167 27.8333C35.1667 27.1833 35.1667 26.1333 34.5167 25.4833C33.8667 24.8333 32.8167 24.8333 32.1667 25.4833L27.65 30L24.8 27.15C24.15 26.5 23.1 26.5 22.45 27.15C21.8 27.8 21.8 28.85 22.45 29.5L25.3 32.35C25.95 33 26.8 33.3167 27.65 33.3167C28.5 33.3167 29.35 33 30 32.35Z" fill="#1B374D"/>
</g>
<defs>
<clipPath id="clip0_123_134">
<rect width="40" height="40" fill="white"/>
</clipPath>
</defs>
</svg>
