<svg width="40" height="40" viewBox="0 0 40 40" fill="none" xmlns="http://www.w3.org/2000/svg">
<g clip-path="url(#clip0_324_2)">
<path d="M23.2202 6.66667C24.5759 6.66799 25.8757 7.20714 26.8344 8.16579C27.793 9.12444 28.3322 10.4243 28.3335 11.78C28.3335 12.222 28.5091 12.646 28.8217 12.9585C29.1342 13.2711 29.5581 13.4467 30.0002 13.4467C30.4422 13.4467 30.8661 13.2711 31.1787 12.9585C31.4912 12.646 31.6668 12.222 31.6668 11.78V11.6667C31.6668 11.635 31.6668 11.6067 31.6668 11.575C31.6112 9.37122 30.6971 7.2763 29.1192 5.73676C27.5414 4.19722 25.4247 3.3348 23.2202 3.33333H21.6668V1.66667C21.6668 1.22464 21.4912 0.800716 21.1787 0.488155C20.8661 0.175595 20.4422 0 20.0002 0C19.5581 0 19.1342 0.175595 18.8217 0.488155C18.5091 0.800716 18.3335 1.22464 18.3335 1.66667V3.33333H16.7802C14.7757 3.33547 12.8373 4.05039 11.3115 5.3503C9.78566 6.6502 8.77185 8.45037 8.45125 10.429C8.13066 12.4077 8.52418 14.4359 9.56148 16.1511C10.5988 17.8663 12.2123 19.1567 14.1135 19.7917L18.3335 21.2V33.3333H16.7802C15.4244 33.332 14.1246 32.7929 13.166 31.8342C12.2073 30.8756 11.6682 29.5757 11.6668 28.22C11.6668 27.778 11.4912 27.354 11.1787 27.0415C10.8661 26.7289 10.4422 26.5533 10.0002 26.5533C9.55814 26.5533 9.13421 26.7289 8.82165 27.0415C8.50909 27.354 8.3335 27.778 8.3335 28.22V28.3333C8.3335 28.365 8.3335 28.3933 8.3335 28.425C8.38912 30.6288 9.30327 32.7237 10.8811 34.2632C12.4589 35.8028 14.5757 36.6652 16.7802 36.6667H18.3335V38.3333C18.3335 38.7754 18.5091 39.1993 18.8217 39.5118C19.1342 39.8244 19.5581 40 20.0002 40C20.4422 40 20.8661 39.8244 21.1787 39.5118C21.4912 39.1993 21.6668 38.7754 21.6668 38.3333V36.6667H23.2202C25.2246 36.6645 27.163 35.9496 28.6888 34.6497C30.2147 33.3498 31.2285 31.5496 31.5491 29.571C31.8697 27.5923 31.4761 25.5641 30.4388 23.8489C29.4015 22.1337 27.7881 20.8433 25.8868 20.2083L21.6668 18.8V6.66667H23.2202ZM24.8368 23.3683C25.9892 23.7519 26.9674 24.5331 27.5964 25.5721C28.2253 26.6111 28.4639 27.84 28.2694 29.0389C28.0749 30.2377 27.46 31.3282 26.5349 32.115C25.6097 32.9019 24.4347 33.3338 23.2202 33.3333H21.6668V22.3117L24.8368 23.3683ZM18.3335 17.6883L15.1668 16.6317C14.0147 16.2482 13.0367 15.4673 12.4077 14.4286C11.7788 13.39 11.5399 12.1614 11.734 10.9628C11.9281 9.76416 12.5423 8.6737 13.4669 7.88657C14.3914 7.09944 15.5659 6.66701 16.7802 6.66667H18.3335V17.6883Z" fill="#1B374D"/>
</g>
<defs>
<clipPath id="clip0_324_2">
<rect width="40" height="40" fill="white"/>
</clipPath>
</defs>
</svg>
