<svg width="40" height="40" viewBox="0 0 40 40" fill="none" xmlns="http://www.w3.org/2000/svg">
<g clip-path="url(#clip0_118_35)">
<path d="M31.6667 16.6667C36.2683 16.6667 40 12.935 40 8.33333C40 3.73167 36.2683 0 31.6667 0C27.065 0 23.3333 3.73167 23.3333 8.33333C23.3333 12.935 27.065 16.6667 31.6667 16.6667ZM28.3333 6.66667H30V5C30 4.08 30.7467 3.33333 31.6667 3.33333C32.5867 3.33333 33.3333 4.08 33.3333 5V6.66667H35C35.92 6.66667 36.6667 7.41333 36.6667 8.33333C36.6667 9.25333 35.92 10 35 10H33.3333V11.6667C33.3333 12.5867 32.5867 13.3333 31.6667 13.3333C30.7467 13.3333 30 12.5867 30 11.6667V10H28.3333C27.4133 10 26.6667 9.25333 26.6667 8.33333C26.6667 7.41333 27.4133 6.66667 28.3333 6.66667ZM16.4633 24.2433L1.24 9.01833C2.705 6.62 5.32333 5 8.33333 5H20.49C20.175 6.05667 20 7.175 20 8.33333C20 13.5983 23.49 18.0467 28.2817 19.4967L23.5367 24.2433C22.5617 25.2167 21.2817 25.7033 20 25.7033C18.72 25.7033 17.4383 25.2167 16.4633 24.2433ZM39.9733 16.52L40 31.6667C40 36.2617 36.2617 40 31.6667 40H8.33333C3.73833 40 0 36.2617 0 31.6667V13.3333C0 13.0717 0.0533333 12.825 0.0766667 12.57L14.1067 26.6C15.7317 28.225 17.865 29.0367 20 29.0367C22.135 29.0367 24.2683 28.225 25.8933 26.6L32.5367 19.9567C35.44 19.7417 38.05 18.4733 39.975 16.52H39.9733Z" fill="#1B374D"/>
</g>
<defs>
<clipPath id="clip0_118_35">
<rect width="40" height="40" fill="white"/>
</clipPath>
</defs>
</svg>
