<svg width="25" height="25" viewBox="0 0 25 25" fill="none" xmlns="http://www.w3.org/2000/svg">
<g clip-path="url(#clip0_235_262)">
<g clip-path="url(#clip1_235_262)">
<path d="M8.02823 9.64173C8.43552 10.049 8.43552 10.7084 8.02823 11.1146C7.62094 11.5219 6.96156 11.5219 6.55531 11.1146C6.14802 10.7074 6.14802 10.048 6.55531 9.64173C6.9626 9.23444 7.62198 9.23444 8.02823 9.64173ZM22.4574 15.9803L21.8689 16.5688C21.8407 17.8532 21.3428 19.1282 20.3741 20.1094L17.0751 23.4511C16.0928 24.4459 14.7824 24.9959 13.3845 25.0001H13.3668C11.9761 25.0001 10.6689 24.4584 9.68552 23.4751L1.96052 15.8157C1.28344 15.1396 0.956354 14.2094 1.06052 13.2605L1.8574 6.05632C1.91052 5.58132 2.27823 5.20319 2.75115 5.13861L9.92719 4.15736C10.898 4.02819 11.8751 4.3584 12.5605 5.04382L20.347 12.7646C20.7501 13.1678 21.073 13.6219 21.3168 14.1063C22.1626 12.8917 22.0439 11.1949 20.9605 10.1115L13.0532 2.39798C12.8147 2.15944 12.4855 2.04902 12.1668 2.09382L4.99073 3.07507C4.41885 3.15215 3.8949 2.75319 3.81677 2.18444C3.73969 1.61465 4.13865 1.08965 4.7074 1.01152L11.8845 0.0292328C12.8439 -0.107226 13.8314 0.228191 14.5178 0.916733L22.423 8.63027C24.4501 10.6563 24.4616 13.9501 22.4564 15.9813L22.4574 15.9803ZM18.8761 14.2407L11.0897 6.51986C10.8574 6.28757 10.5314 6.18027 10.2074 6.2209L3.8376 7.09277L3.13031 13.4886C3.09594 13.8042 3.20427 14.1146 3.42927 14.3386L11.1543 21.998C11.747 22.5917 12.5314 22.9157 13.3657 22.9157H13.3761C14.2157 22.9136 15.0022 22.5834 15.5907 21.9855L18.8897 18.6438C20.0928 17.4251 20.0866 15.449 18.8751 14.2386L18.8761 14.2407Z" fill="#1B374D"/>
</g>
</g>
<defs>
<clipPath id="clip0_235_262">
<rect width="25" height="25" fill="white"/>
</clipPath>
<clipPath id="clip1_235_262">
<rect width="25" height="25" fill="white"/>
</clipPath>
</defs>
</svg>
