<svg width="40" height="40" viewBox="0 0 40 40" fill="none" xmlns="http://www.w3.org/2000/svg">
<path d="M38.3704 14.6417C37.3786 13.7383 36.11 13.2733 34.7548 13.3383C33.4145 13.4 32.1793 13.9817 31.2791 14.9733L25.9165 20.8633C24.998 19.3467 23.331 18.3317 21.434 18.3317H15.0044V16.665H15.6312C18.0433 16.665 20.0054 14.7033 20.0054 12.2917C20.0054 10.145 18.4668 8.33 16.3497 7.97833L10.8737 7.065C10.3703 6.98167 10.0052 6.55 10.0052 6.03833C10.0052 5.465 10.4719 4.99833 11.0454 4.99833H15.0061C15.9263 4.99833 16.6731 5.74667 16.6731 6.665H20.007C20.007 3.90833 17.7633 1.665 15.0061 1.665V0H11.6722V1.66667H11.0454C8.63327 1.66667 6.67124 3.62833 6.67124 6.04C6.67124 8.18667 8.20986 10.0017 10.3269 10.3533L15.8029 11.2667C16.3064 11.35 16.6714 11.7817 16.6714 12.2933C16.6714 12.8667 16.2047 13.3333 15.6312 13.3333H11.6705C10.7503 13.3333 10.0035 12.585 10.0035 11.6667H6.66957C6.66957 14.4233 8.91332 16.6667 11.6705 16.6667V18.3333H5.00093C2.24375 18.3333 0 20.5767 0 23.3333V35C0 37.7567 2.24375 40 5.00093 40H22.4175L38.7322 21.6917C40.5558 19.65 40.3941 16.4867 38.3704 14.6417ZM36.245 19.4733L20.9255 36.6667H5.00093C4.08076 36.6667 3.33395 35.9183 3.33395 35V23.3333C3.33395 22.415 4.08076 21.6667 5.00093 21.6667H21.4323C22.4825 21.6667 23.3377 22.52 23.3377 23.57C23.3377 24.51 22.6342 25.3217 21.704 25.455L13.1008 26.6833L13.5725 29.9817L22.1758 28.7533C24.1345 28.4733 25.7248 27.1067 26.3666 25.3217L33.7463 17.215C34.048 16.8817 34.4631 16.6883 34.9115 16.6667C35.3632 16.655 35.7916 16.8033 36.125 17.1033C36.8035 17.7233 36.8585 18.785 36.245 19.4717V19.4733ZM30.0506 8.36H23.3393V5.02667H30.1039L27.5418 2.46333L29.8989 0.106667L33.9796 4.18833C34.6414 4.84833 35.0065 5.72833 35.0065 6.665C35.0065 7.60167 34.6414 8.48167 33.9796 9.14333L29.8289 13.2933L27.4718 10.9367L30.0489 8.36H30.0506Z" fill="#1B374D"/>
</svg>
