<svg width="40" height="40" viewBox="0 0 40 40" fill="none" xmlns="http://www.w3.org/2000/svg">
<path d="M40 13.3333C40 13.1783 39.9783 13.0233 39.9367 12.875L37.9833 6.04333C36.9667 2.485 33.67 0 29.97 0H10.0283C6.32833 0 3.03333 2.485 2.015 6.04333L0.065 12.875C0.0233333 13.0233 0 13.1783 0 13.3333C0 15.02 0.63 16.5617 1.66667 17.7383V33.3333C1.66667 37.01 4.65667 40 8.33333 40H18.3333C22.01 40 25 37.01 25 33.3333V19.105C25.6267 18.7417 26.19 18.2783 26.6667 17.7383C27.8883 19.125 29.6767 20 31.6667 20H33.3333C33.9083 20 34.4667 19.9267 35 19.7883V38.3333C35 39.2533 35.745 40 36.6667 40C37.5883 40 38.3333 39.2533 38.3333 38.3333V17.7383C39.37 16.5633 40 15.02 40 13.3333ZM18.3333 36.6667H8.33333C6.495 36.6667 5 35.1717 5 33.3333V30H21.6667V33.3333C21.6667 35.1717 20.1717 36.6667 18.3333 36.6667ZM21.6667 26.6667H5V19.7883C5.53333 19.9267 6.09167 20 6.66667 20H8.33333C10.3233 20 12.11 19.1233 13.3333 17.7383C14.5567 19.125 16.3433 20 18.3333 20H21.6667V26.6667ZM31.6667 16.6667C29.8283 16.6667 28.3333 15.1717 28.3333 13.3333C28.3333 12.4133 27.5883 11.6667 26.6667 11.6667C25.745 11.6667 25 12.4133 25 13.3333C25 15.1717 23.505 16.6667 21.6667 16.6667H18.3333C16.495 16.6667 15 15.1717 15 13.3333C15 12.4133 14.2533 11.6667 13.3333 11.6667C12.4133 11.6667 11.6667 12.4133 11.6667 13.3333C11.6667 15.1717 10.1717 16.6667 8.33333 16.6667H6.66667C5.85 16.6667 5.1 16.37 4.52 15.8817C4.47167 15.8333 4.42167 15.7883 4.36833 15.745C3.77833 15.1833 3.39333 14.4083 3.34 13.545L5.22 6.96C5.83 4.825 7.80667 3.33333 10.0283 3.33333H11.6667V6.66667C11.6667 7.58667 12.4133 8.33333 13.3333 8.33333C14.2533 8.33333 15 7.58667 15 6.66667V3.33333H25V6.66667C25 7.58667 25.745 8.33333 26.6667 8.33333C27.5883 8.33333 28.3333 7.58667 28.3333 6.66667V3.33333H29.97C32.19 3.33333 34.1683 4.825 34.7783 6.96L36.66 13.545C36.5517 15.285 35.1 16.6683 33.3333 16.6683H31.6667V16.6667Z" fill="#1B374D"/>
</svg>
