<svg width="40" height="40" viewBox="0 0 40 40" fill="none" xmlns="http://www.w3.org/2000/svg">
<path d="M31.6665 14.04V11.6666C31.6665 5.22336 26.4433 0 19.9999 0C13.5565 0 8.33325 5.22336 8.33325 11.6666V14.04C5.29997 15.3638 3.33763 18.3571 3.33325 21.6666V31.6666C3.33872 36.2667 7.06645 39.9945 11.6665 40H28.3332C32.9333 39.9945 36.661 36.2667 36.6665 31.6666V21.6666C36.6622 18.3571 34.6998 15.3638 31.6665 14.04ZM21.6665 28.3334C21.6665 29.2538 20.9204 30 19.9999 30C19.0794 30 18.3333 29.2538 18.3333 28.3334V25C18.3333 24.0795 19.0794 23.3334 19.9999 23.3334C20.9204 23.3334 21.6665 24.0795 21.6665 25V28.3334ZM28.3333 13.3334H11.6665V11.6667C11.6665 7.06437 15.3975 3.33336 19.9999 3.33336C24.6023 3.33336 28.3333 7.0643 28.3333 11.6667V13.3334Z" fill="#1B374D"/>
</svg>
