<svg width="40" height="40" viewBox="0 0 40 40" fill="none" xmlns="http://www.w3.org/2000/svg">
<g clip-path="url(#clip0_250_457)">
<path d="M20.0002 10C18.6816 10 17.3927 10.391 16.2964 11.1235C15.2 11.8561 14.3456 12.8973 13.841 14.1154C13.3364 15.3336 13.2044 16.6741 13.4616 17.9673C13.7188 19.2605 14.3538 20.4484 15.2861 21.3807C16.2185 22.3131 17.4064 22.948 18.6996 23.2052C19.9928 23.4625 21.3332 23.3304 22.5514 22.8259C23.7696 22.3213 24.8108 21.4668 25.5433 20.3705C26.2758 19.2741 26.6668 17.9852 26.6668 16.6667C26.6668 14.8986 25.9645 13.2029 24.7142 11.9526C23.464 10.7024 21.7683 10 20.0002 10ZM20.0002 20C19.3409 20 18.6964 19.8045 18.1483 19.4382C17.6001 19.072 17.1729 18.5514 16.9206 17.9423C16.6683 17.3332 16.6023 16.663 16.7309 16.0164C16.8595 15.3698 17.177 14.7758 17.6431 14.3096C18.1093 13.8435 18.7033 13.526 19.3499 13.3974C19.9965 13.2688 20.6667 13.3348 21.2758 13.5871C21.8849 13.8394 22.4055 14.2666 22.7717 14.8148C23.138 15.3629 23.3335 16.0074 23.3335 16.6667C23.3335 17.5507 22.9823 18.3986 22.3572 19.0237C21.7321 19.6488 20.8842 20 20.0002 20Z" fill="#1B374D"/>
<path d="M20 39.9999C18.5966 40.0071 17.2119 39.6779 15.9618 39.04C14.7117 38.4021 13.6327 37.4739 12.815 36.3333C6.46337 27.5716 3.2417 20.9849 3.2417 16.7549C3.2417 12.3103 5.0073 8.04778 8.1501 4.90498C11.2929 1.76219 15.5554 -0.00341797 20 -0.00341797C24.4446 -0.00341797 28.7072 1.76219 31.85 4.90498C34.9928 8.04778 36.7584 12.3103 36.7584 16.7549C36.7584 20.9849 33.5367 27.5716 27.185 36.3333C26.3674 37.4739 25.2883 38.4021 24.0383 39.04C22.7882 39.6779 21.4035 40.0071 20 39.9999ZM20 3.63492C16.5207 3.63889 13.1851 5.02279 10.7248 7.48304C8.26458 9.94328 6.88067 13.2789 6.8767 16.7582C6.8767 20.1082 10.0317 26.3033 15.7584 34.2016C16.2445 34.8712 16.8823 35.4162 17.6196 35.792C18.3568 36.1678 19.1725 36.3637 20 36.3637C20.8275 36.3637 21.6433 36.1678 22.3805 35.792C23.1178 35.4162 23.7555 34.8712 24.2417 34.2016C29.9684 26.3033 33.1234 20.1082 33.1234 16.7582C33.1194 13.2789 31.7355 9.94328 29.2752 7.48304C26.815 5.02279 23.4793 3.63889 20 3.63492Z" fill="#1B374D"/>
</g>
<defs>
<clipPath id="clip0_250_457">
<rect width="40" height="40" fill="white"/>
</clipPath>
</defs>
</svg>
