<svg width="40" height="40" viewBox="0 0 40 40" fill="none" xmlns="http://www.w3.org/2000/svg">
<g clip-path="url(#clip0_278_2)">
<path d="M39.3685 11.3934L37.1151 6.68342C36.5335 5.46675 35.4651 4.52342 34.1851 4.09675L23.6901 0.598418C21.3101 -0.194915 18.6901 -0.194915 16.3101 0.598418L5.8168 4.09675C4.53514 4.52342 3.4668 5.46842 2.88514 6.68675L0.741803 11.1984C-0.0531968 12.5184 -0.203197 14.1018 0.330137 15.5468C0.845137 16.9468 1.9368 18.0301 3.33347 18.5401L3.32514 29.0634C3.3218 32.6601 5.6118 35.8401 9.0218 36.9768L16.2968 39.4018C17.4868 39.7984 18.7368 39.9968 19.9868 39.9968C21.2368 39.9968 22.4868 39.7984 23.6768 39.4018L30.9585 36.9734C34.3635 35.8384 36.6535 32.6651 36.6568 29.0751L36.6651 18.5418C38.0751 18.0468 39.1785 16.9651 39.6968 15.5584C40.2251 14.1284 40.0785 12.5601 39.3685 11.3934ZM17.3651 3.76175C19.0651 3.19508 20.9368 3.19508 22.6351 3.76175L29.7151 6.12175L20.0118 9.37175L10.2885 6.12175L17.3651 3.76175ZM3.67347 12.7768L5.88514 8.14008C5.96514 8.18175 17.6468 12.0951 17.6468 12.0951L14.9451 17.5251C14.5468 18.1884 13.7201 18.4951 12.9901 18.2484L4.5218 15.4268C4.0268 15.2618 3.63847 14.8851 3.4568 14.3951C3.27514 13.9051 3.3268 13.3684 3.6718 12.7784L3.67347 12.7768ZM10.0751 33.8151C8.02847 33.1334 6.65514 31.2251 6.6568 29.0684L6.66514 19.6551L11.9351 21.4118C14.1751 22.1584 16.5885 21.2668 17.8668 19.1268L18.3301 18.1984L18.3218 36.5001C17.9935 36.4334 17.6701 36.3484 17.3535 36.2418L10.0768 33.8168L10.0751 33.8151ZM29.9035 33.8134L22.6201 36.2418C22.3035 36.3468 21.9801 36.4334 21.6518 36.5001L21.6601 18.1751L22.1918 19.2418C23.1185 20.7884 24.7451 21.6734 26.4601 21.6734C26.9918 21.6734 27.5318 21.5884 28.0601 21.4118L33.3285 19.6568L33.3201 29.0751C33.3201 31.2284 31.9435 33.1334 29.9001 33.8151L29.9035 33.8134ZM36.5701 14.4068C36.3951 14.8818 36.0185 15.2468 35.5385 15.4068L27.0085 18.2501C26.2785 18.4951 25.4518 18.1918 25.1151 17.6418L22.3568 12.1034C22.3568 12.1034 34.0335 8.18509 34.1135 8.14175L36.4351 12.9768C36.6968 13.4118 36.7451 13.9334 36.5701 14.4084V14.4068Z" fill="#1B374D"/>
</g>
<defs>
<clipPath id="clip0_278_2">
<rect width="40" height="40" fill="white"/>
</clipPath>
</defs>
</svg>
