<svg width="40" height="40" viewBox="0 0 40 40" fill="none" xmlns="http://www.w3.org/2000/svg">
<g clip-path="url(#clip0_123_137)">
<path d="M4.58511 25H0.000110682V23.3333C-0.0251199 20.9965 0.593767 18.6978 1.78888 16.6895C2.98399 14.6811 4.70915 13.0408 6.77511 11.9483C8.81034 10.9448 11.0145 10.3288 13.2751 10.1317C12.2873 11.3539 11.2968 12.6528 10.3034 14.0283C8.06614 17.5032 6.15202 21.1758 4.58511 25ZM25.9718 29.6883C22.4973 31.9285 18.8247 33.8454 15.0001 35.415V40H16.6668C19.0037 40.0252 21.3023 39.4063 23.3107 38.2112C25.319 37.0161 26.9593 35.291 28.0518 33.225C29.0553 31.1898 29.6713 28.9856 29.8684 26.725C28.6518 27.7083 27.3529 28.6961 25.9718 29.6883ZM40.0001 4.985C39.7784 12.24 34.5551 19.435 24.0301 26.985C21.166 28.8417 18.1444 30.4434 15.0001 31.7717V30.8333C14.9927 29.2885 14.3757 27.8091 13.2833 26.7168C12.191 25.6244 10.7116 25.0075 9.16678 25H8.22844C9.55828 21.8558 11.1622 18.8347 13.0218 15.9717C20.5534 5.46333 27.7368 0.24 34.9801 0C38.5901 0 40.0001 1.475 40.0001 4.985ZM30.0001 14.1667C30.0001 13.0616 29.5611 12.0018 28.7797 11.2204C27.9983 10.439 26.9385 10 25.8334 10C24.7284 10 23.6686 10.439 22.8872 11.2204C22.1058 12.0018 21.6668 13.0616 21.6668 14.1667C21.6668 15.2717 22.1058 16.3315 22.8872 17.1129C23.6686 17.8943 24.7284 18.3333 25.8334 18.3333C26.9385 18.3333 27.9983 17.8943 28.7797 17.1129C29.5611 16.3315 30.0001 15.2717 30.0001 14.1667ZM2.29011 39.6417C4.16678 39.3083 8.69178 38.3783 10.2034 36.8683C10.6678 36.404 11.0361 35.8528 11.2874 35.2461C11.5387 34.6394 11.668 33.9892 11.668 33.3325C11.668 32.6758 11.5387 32.0256 11.2874 31.4189C11.0361 30.8122 10.6678 30.261 10.2034 29.7967C9.73911 29.3323 9.18787 28.964 8.58119 28.7127C7.97451 28.4614 7.32428 28.3321 6.66761 28.3321C5.34142 28.3321 4.06954 28.8589 3.13178 29.7967C1.62178 31.3083 0.690111 35.8333 0.358444 37.71L-0.0532227 40.0533L2.29011 39.6417Z" fill="#1B374D"/>
</g>
<defs>
<clipPath id="clip0_123_137">
<rect width="40" height="40" fill="white"/>
</clipPath>
</defs>
</svg>
